# xmcd CD database file
#
# Track frame offsets:
#	150
#	10317
#	19846
#	29402
#	39881
#	47083
#	57188
#	64476
#	74242
#	86529
#	96527
#	106369
#	116536
#	126065
#	135621
#	146100
#	153302
#	163407
#	170695
#	180461
#	192748
#	202746
#	212588
#	222755
#	232284
#	241840
#	252319
#	259521
#	269626
#	276914
#	286680
#	298967
#	308965
#	319032
#
# Disc length: 4257 seconds
#
# Revision: 0
# Processed by: cddbd v1.4b41PL3 Copyright (c) Steve Scherf et al.
# Submitted via: CDex 1.40Beta5
#
DISCID=16109f22
DTITLE=Little Dogs on the Praire - Take Me Home, Praire Roads
DYEAR=2000
DGENRE=Country
TTITLE0=Opening Theme (Welcome to Praire Town)
TTITLE1=Git Along Little Doggies
TTITLE2=Too Much Pride
TTITLE3=What Love's All About
TTITLE4=When You Start Lyin'
TTITLE5=Cheaters Never Really Win
TTITLE6=It's A Real Bad Thing
TTITLE7=Style Where It Really Counts
TTITLE8=Love Is
TTITLE9=Only When You Share
TTITLE10=Closing Theme (We Like You Too Much to Say Goodbye)
TTITLE11=Opening Theme (Welcome to Praire Town) [split-trax]
TTITLE12=Git Along Little Doggies [split-trax]
TTITLE13=Too Much Pride [split-trax]
TTITLE14=What Love's All About [split-trax]
TTITLE15=When You Start Lyin' [split-trax]
TTITLE16=Cheaters Never Really Win [split-trax]
TTITLE17=It's A Real Bad Thing [split-trax]
TTITLE18=Style Where It Really Counts [split-trax]
TTITLE19=Love Is [split-trax]
TTITLE20=Only When You Share [split-trax]
TTITLE21=Closing Theme (We Like You Too Much to Say Goodbye) [split-trax]
TTITLE22=Opening Theme (Welcome to Praire Town) [instrumental]
TTITLE23=Git Along Little Doggies [instrumental]
TTITLE24=Too Much Pride [instrumental]
TTITLE25=What Love's All About [instrumental]
TTITLE26=When You Start Lyin' [instrumental]
TTITLE27=Cheaters Never Really Win [instrumental]
TTITLE28=It's A Real Bad Thing [instrumental]
TTITLE29=Style Where It Really Counts [instrumental]
TTITLE30=Love Is [instrumental]
TTITLE31=Only When You Share [instrumental]
TTITLE32=Closing Theme (We Like You Too Much to Say Goodbye) [instrumental]
TTITLE33=Slave To The Winds of Fashion [sound bite]
EXTD=YEAR: 2000 ID3G:   2
EXTT0=
EXTT1=
EXTT2=
EXTT3=
EXTT4=
EXTT5=
EXTT6=
EXTT7=
EXTT8=
EXTT9=
EXTT10=
EXTT11=
EXTT12=
EXTT13=
EXTT14=
EXTT15=
EXTT16=
EXTT17=
EXTT18=
EXTT19=
EXTT20=
EXTT21=
EXTT22=
EXTT23=
EXTT24=
EXTT25=
EXTT26=
EXTT27=
EXTT28=
EXTT29=
EXTT30=
EXTT31=
EXTT32=
EXTT33=
PLAYORDER=
